<svg xmlns="http://www.w3.org/2000/svg" width="1396" height="330" viewBox="0 0 1396 330">
  <defs><filter id="lglow" x="-20%" y="-40%" width="140%" height="180%"><feGaussianBlur stdDeviation="24"/></filter></defs>
  <path d="M394 199L394 247.20Q394 250.20 375.20 250.20L375.20 250.20L364 249.60Q354 248.80 354 246.80L354 246.80L354 112.60Q354 109.20 374 109.20Q394 109.20 394 112.60L394 112.60L394 163.80L418.40 112.60Q419.80 109.80 434.40 109.80L434.40 109.80Q461 109.80 462.40 114.40L462.40 114.40Q462.40 114.80 462.20 115.20L462.20 115.20L427.40 178L467.80 233.80Q467.80 234.20 464 237.20L464 237.20Q454.80 245.20 442.40 249.80L442.40 249.80Q438.60 251.20 434.80 251.20L434.80 251.20L430 250.80Q423.60 249.20 420 242.60L420 242.60L397.20 199L394 199Z M646.80 184.60L646.80 248.80Q646.80 250.20 632.40 250.20L632.40 250.20Q612.40 249.60 612.40 248L612.40 248L612.40 183.20L607.20 183.20Q602 183.20 600.40 174.40L600.40 174.40Q600 171.80 600 169.20L600 169.20Q600 163 602.40 156.80L602.40 156.80Q606 148 613.60 148Q621.20 148 627.20 151.60Q633.20 155.20 635.20 158.80L635.20 158.80Q647.80 148 665.20 148Q682.60 148 690.40 157.40Q698.20 166.80 698.20 188.20L698.20 188.20L698.20 248.20Q698.20 250.60 681.10 250.60Q664 250.60 664 248.20L664 248.20L664 190.40Q664 180.40 657 180.40L657 180.40Q655 180.40 651.40 182.10Q647.80 183.80 646.80 184.60L646.80 184.60ZM719.40 214L719.40 214Q735.60 223.80 745 223.80L745 223.80Q751 223.80 751 219.60L751 219.60Q751 216.60 740.60 211.80L740.60 211.80Q715.60 201.60 715.60 178.40L715.60 178.40Q715.60 163.60 726.40 155.80Q737.20 148 752.30 148Q767.40 148 777.90 151.20Q788.40 154.40 788.40 159.60L788.40 159.60Q788.40 164 784.10 171.20Q779.80 178.40 778.20 179L778.20 179Q769.60 174.20 759.60 174.20L759.60 174.20Q754.20 174.20 754.20 178L754.20 178Q754.20 180.40 756.30 182.10Q758.40 183.80 764 186.30Q769.60 188.80 773.30 190.80Q777 192.80 781.60 196.40L781.60 196.40Q791.20 204 791.20 216.20L791.20 216.20Q791.20 232.20 780.60 242.10Q770 252 748.60 252L748.60 252Q734.40 252 722.80 247.20Q711.20 242.40 711.20 234L711.20 234Q711.20 228.40 713.90 222.20Q716.60 216 719.40 214ZM851.20 178L851.20 248.80Q851.20 251.20 834.40 251.20L834.40 251.20Q814.40 250.40 814.40 248.60L814.40 248.60L814.40 177.80L804.20 177.80Q800.20 177.80 800.20 164L800.20 164Q800.20 160.40 800.90 155.20Q801.60 150 803.80 150L803.80 150L814.40 150L814.40 132.40Q814.40 128.40 831.30 128.40Q848.20 128.40 848.20 131.60L848.20 131.60L848.20 144.40L848.40 150L865.40 150Q868.80 150 868.80 164Q868.80 178 865.40 178L865.40 178L851.20 178ZM922.60 194L922.60 249.80Q922.60 251.20 904.40 251.20L904.40 251.20Q886.20 250.80 886.20 249.60L886.20 249.60L886.20 183.20L880.80 183.20Q877.60 183.20 875.70 179.30Q873.80 175.40 873.80 169.60L873.80 169.60Q873.80 148 886.60 148L886.60 148Q895.60 148 901.60 153.50Q907.60 159 907.60 166L907.60 166Q911.80 157.80 918.90 152.90Q926.00 148 933.40 148L933.40 148Q945.00 148 947.40 154L947.40 154Q948.00 155.60 948.00 158.70Q948.00 161.80 946.10 169.80Q944.20 177.80 942.20 181.40Q940.20 185 939.80 185Q939.40 185 936.10 183.50Q932.80 182 930.20 182L930.20 182Q922.60 182 922.60 194L922.60 194ZM957.00 210.20L957.00 151.20Q957.00 149 974.20 149Q991.40 149 991.40 151.20L991.40 151.20L991.40 209.60Q991.40 219.60 997.80 219.60L997.80 219.60Q1002.60 219.60 1008.60 215.40L1008.60 215.40L1008.60 151.20Q1008.60 149.20 1025.60 149.20Q1042.60 149.20 1042.60 151.20L1042.60 151.20L1042.60 216.80L1047.80 216.80Q1054.60 216.80 1054.60 229.80L1054.60 229.80Q1054.60 236.40 1051.80 243.20L1051.80 243.20Q1047.80 252 1041 252L1041 252Q1027.60 252 1021.20 241L1021.20 241L1021.00 241.20Q1008.80 252 994.80 252L994.80 252Q975.40 252 966.20 242.30Q957.00 232.60 957.00 210.20L957.00 210.20ZM1066.80 248.80L1066.80 111.60Q1066.80 108.40 1085.00 108.40L1085.00 108.40Q1102.00 109 1102.00 111L1102.00 111L1102.00 187.80L1121.80 151.20Q1123.20 148.20 1138.80 148.20Q1154.40 148.20 1158.80 150.20L1158.80 150.20L1132.80 192.60L1162.80 248.80Q1163.20 249.60 1155.30 250.10Q1147.40 250.60 1142.20 250.60L1142.20 250.60Q1123.00 250.60 1121.60 248.80L1121.60 248.80L1101.80 204.40L1101.80 248.60Q1101.80 251.20 1084.30 251.20Q1066.80 251.20 1066.80 248.80L1066.80 248.80ZM1214.00 178L1214.00 248.80Q1214.00 251.20 1197.20 251.20L1197.20 251.20Q1177.20 250.40 1177.20 248.60L1177.20 248.60L1177.20 177.80L1167.00 177.80Q1163.00 177.80 1163.00 164L1163.00 164Q1163.00 160.40 1163.70 155.20Q1164.40 150 1166.60 150L1166.60 150L1177.20 150L1177.20 132.40Q1177.20 128.40 1194.10 128.40Q1211.00 128.40 1211.00 131.60L1211.00 131.60L1211.00 144.40L1211.20 150L1228.20 150Q1231.60 150 1231.60 164Q1231.60 178 1228.20 178L1228.20 178L1214.00 178ZM1254.20 177.40L1254.20 177.40Q1248.60 167.40 1248.60 161.10Q1248.60 154.80 1252.00 153L1252.00 153Q1263.40 148 1283.30 148Q1303.20 148 1311.40 157.30Q1319.60 166.60 1319.60 184.80L1319.60 184.80L1319.60 216.40L1326.40 216.40Q1329.80 216.40 1331.70 220.40Q1333.60 224.40 1333.60 231.40Q1333.60 238.40 1330.10 245.20Q1326.60 252 1320.60 252L1320.60 252Q1309.80 252 1303.20 246.20L1303.20 246.20Q1300.20 243.80 1298.60 240.40L1298.60 240.40Q1289.40 252 1270.00 252L1270.00 252Q1255.40 252 1245.40 241.60Q1235.40 231.20 1235.40 217L1235.40 217Q1235.40 184.40 1274.40 184.40L1274.40 184.40L1285.40 184.40L1285.40 182.40Q1285.40 177.20 1283.70 175.70Q1282.00 174.20 1275.80 174.20L1275.80 174.20Q1268.20 174.20 1254.20 177.40ZM1270.20 214.20L1270.20 214.20Q1270.20 218.60 1272.60 220.90Q1275.00 223.20 1278.70 223.20Q1282.40 223.20 1285.40 220.20L1285.40 220.20L1285.40 204.80L1279.80 204.80Q1270.20 204.80 1270.20 214.20Z" fill="#FFB85C" opacity=".45" filter="url(#lglow)"/>
  <circle cx="180" cy="180" r="108" fill="#FFB85C" opacity=".22" filter="url(#lglow)"/>
  <svg x="60" y="60" width="240" height="240" viewBox="0 0 64 64">
  <defs>
    <radialGradient id="kglow" cx="50%" cy="50%" r="50%">
      <stop offset="0" stop-color="#FFE9B0"/>
      <stop offset=".45" stop-color="#FFB85C" stop-opacity=".7"/>
      <stop offset="1" stop-color="#FFB85C" stop-opacity="0"/>
    </radialGradient>
  </defs>
  <circle cx="32" cy="10" r="11" fill="url(#kglow)"/>
  <path d="M32 15v8" stroke="#C9A063" stroke-width="2.5" stroke-linecap="round"/>
  <g transform="translate(32 9) scale(.62)"><path d="M0-10 8-3V4L0 11-8 4V-3Z" fill="#FFB85C" stroke="#6a3a14" stroke-width="2" stroke-linejoin="round"/><path d="M0-10 8-3V4L0 11Z" fill="#E8913F"/><path d="M0-10-8-3 0 0 8-3Z" fill="#FFE0A8"/></g>
  <rect x="10" y="22" width="44" height="36" rx="13" fill="#E07B39" stroke="#6a3a14" stroke-width="2.5"/>
  <path d="M10 33a12 12 0 0 1 12-11h20a12 12 0 0 1 12 11" fill="#C9A063" stroke="#6a3a14" stroke-width="2.5"/>
  <circle cx="7" cy="40" r="4" fill="#C9A063" stroke="#6a3a14" stroke-width="2"/>
  <circle cx="57" cy="40" r="4" fill="#C9A063" stroke="#6a3a14" stroke-width="2"/>
  <rect x="16" y="32" width="32" height="20" rx="6" fill="#17121A"/>
  <path d="M22 44q4-6 8 0M34 44q4-6 8 0" fill="none" stroke="#6FE3D6" stroke-width="3" stroke-linecap="round"/>
</svg>
  <path d="M394 199L394 247.20Q394 250.20 375.20 250.20L375.20 250.20L364 249.60Q354 248.80 354 246.80L354 246.80L354 112.60Q354 109.20 374 109.20Q394 109.20 394 112.60L394 112.60L394 163.80L418.40 112.60Q419.80 109.80 434.40 109.80L434.40 109.80Q461 109.80 462.40 114.40L462.40 114.40Q462.40 114.80 462.20 115.20L462.20 115.20L427.40 178L467.80 233.80Q467.80 234.20 464 237.20L464 237.20Q454.80 245.20 442.40 249.80L442.40 249.80Q438.60 251.20 434.80 251.20L434.80 251.20L430 250.80Q423.60 249.20 420 242.60L420 242.60L397.20 199L394 199Z M646.80 184.60L646.80 248.80Q646.80 250.20 632.40 250.20L632.40 250.20Q612.40 249.60 612.40 248L612.40 248L612.40 183.20L607.20 183.20Q602 183.20 600.40 174.40L600.40 174.40Q600 171.80 600 169.20L600 169.20Q600 163 602.40 156.80L602.40 156.80Q606 148 613.60 148Q621.20 148 627.20 151.60Q633.20 155.20 635.20 158.80L635.20 158.80Q647.80 148 665.20 148Q682.60 148 690.40 157.40Q698.20 166.80 698.20 188.20L698.20 188.20L698.20 248.20Q698.20 250.60 681.10 250.60Q664 250.60 664 248.20L664 248.20L664 190.40Q664 180.40 657 180.40L657 180.40Q655 180.40 651.40 182.10Q647.80 183.80 646.80 184.60L646.80 184.60ZM719.40 214L719.40 214Q735.60 223.80 745 223.80L745 223.80Q751 223.80 751 219.60L751 219.60Q751 216.60 740.60 211.80L740.60 211.80Q715.60 201.60 715.60 178.40L715.60 178.40Q715.60 163.60 726.40 155.80Q737.20 148 752.30 148Q767.40 148 777.90 151.20Q788.40 154.40 788.40 159.60L788.40 159.60Q788.40 164 784.10 171.20Q779.80 178.40 778.20 179L778.20 179Q769.60 174.20 759.60 174.20L759.60 174.20Q754.20 174.20 754.20 178L754.20 178Q754.20 180.40 756.30 182.10Q758.40 183.80 764 186.30Q769.60 188.80 773.30 190.80Q777 192.80 781.60 196.40L781.60 196.40Q791.20 204 791.20 216.20L791.20 216.20Q791.20 232.20 780.60 242.10Q770 252 748.60 252L748.60 252Q734.40 252 722.80 247.20Q711.20 242.40 711.20 234L711.20 234Q711.20 228.40 713.90 222.20Q716.60 216 719.40 214ZM851.20 178L851.20 248.80Q851.20 251.20 834.40 251.20L834.40 251.20Q814.40 250.40 814.40 248.60L814.40 248.60L814.40 177.80L804.20 177.80Q800.20 177.80 800.20 164L800.20 164Q800.20 160.40 800.90 155.20Q801.60 150 803.80 150L803.80 150L814.40 150L814.40 132.40Q814.40 128.40 831.30 128.40Q848.20 128.40 848.20 131.60L848.20 131.60L848.20 144.40L848.40 150L865.40 150Q868.80 150 868.80 164Q868.80 178 865.40 178L865.40 178L851.20 178ZM922.60 194L922.60 249.80Q922.60 251.20 904.40 251.20L904.40 251.20Q886.20 250.80 886.20 249.60L886.20 249.60L886.20 183.20L880.80 183.20Q877.60 183.20 875.70 179.30Q873.80 175.40 873.80 169.60L873.80 169.60Q873.80 148 886.60 148L886.60 148Q895.60 148 901.60 153.50Q907.60 159 907.60 166L907.60 166Q911.80 157.80 918.90 152.90Q926.00 148 933.40 148L933.40 148Q945.00 148 947.40 154L947.40 154Q948.00 155.60 948.00 158.70Q948.00 161.80 946.10 169.80Q944.20 177.80 942.20 181.40Q940.20 185 939.80 185Q939.40 185 936.10 183.50Q932.80 182 930.20 182L930.20 182Q922.60 182 922.60 194L922.60 194ZM957.00 210.20L957.00 151.20Q957.00 149 974.20 149Q991.40 149 991.40 151.20L991.40 151.20L991.40 209.60Q991.40 219.60 997.80 219.60L997.80 219.60Q1002.60 219.60 1008.60 215.40L1008.60 215.40L1008.60 151.20Q1008.60 149.20 1025.60 149.20Q1042.60 149.20 1042.60 151.20L1042.60 151.20L1042.60 216.80L1047.80 216.80Q1054.60 216.80 1054.60 229.80L1054.60 229.80Q1054.60 236.40 1051.80 243.20L1051.80 243.20Q1047.80 252 1041 252L1041 252Q1027.60 252 1021.20 241L1021.20 241L1021.00 241.20Q1008.80 252 994.80 252L994.80 252Q975.40 252 966.20 242.30Q957.00 232.60 957.00 210.20L957.00 210.20ZM1066.80 248.80L1066.80 111.60Q1066.80 108.40 1085.00 108.40L1085.00 108.40Q1102.00 109 1102.00 111L1102.00 111L1102.00 187.80L1121.80 151.20Q1123.20 148.20 1138.80 148.20Q1154.40 148.20 1158.80 150.20L1158.80 150.20L1132.80 192.60L1162.80 248.80Q1163.20 249.60 1155.30 250.10Q1147.40 250.60 1142.20 250.60L1142.20 250.60Q1123.00 250.60 1121.60 248.80L1121.60 248.80L1101.80 204.40L1101.80 248.60Q1101.80 251.20 1084.30 251.20Q1066.80 251.20 1066.80 248.80L1066.80 248.80ZM1214.00 178L1214.00 248.80Q1214.00 251.20 1197.20 251.20L1197.20 251.20Q1177.20 250.40 1177.20 248.60L1177.20 248.60L1177.20 177.80L1167.00 177.80Q1163.00 177.80 1163.00 164L1163.00 164Q1163.00 160.40 1163.70 155.20Q1164.40 150 1166.60 150L1166.60 150L1177.20 150L1177.20 132.40Q1177.20 128.40 1194.10 128.40Q1211.00 128.40 1211.00 131.60L1211.00 131.60L1211.00 144.40L1211.20 150L1228.20 150Q1231.60 150 1231.60 164Q1231.60 178 1228.20 178L1228.20 178L1214.00 178ZM1254.20 177.40L1254.20 177.40Q1248.60 167.40 1248.60 161.10Q1248.60 154.80 1252.00 153L1252.00 153Q1263.40 148 1283.30 148Q1303.20 148 1311.40 157.30Q1319.60 166.60 1319.60 184.80L1319.60 184.80L1319.60 216.40L1326.40 216.40Q1329.80 216.40 1331.70 220.40Q1333.60 224.40 1333.60 231.40Q1333.60 238.40 1330.10 245.20Q1326.60 252 1320.60 252L1320.60 252Q1309.80 252 1303.20 246.20L1303.20 246.20Q1300.20 243.80 1298.60 240.40L1298.60 240.40Q1289.40 252 1270.00 252L1270.00 252Q1255.40 252 1245.40 241.60Q1235.40 231.20 1235.40 217L1235.40 217Q1235.40 184.40 1274.40 184.40L1274.40 184.40L1285.40 184.40L1285.40 182.40Q1285.40 177.20 1283.70 175.70Q1282.00 174.20 1275.80 174.20L1275.80 174.20Q1268.20 174.20 1254.20 177.40ZM1270.20 214.20L1270.20 214.20Q1270.20 218.60 1272.60 220.90Q1275.00 223.20 1278.70 223.20Q1282.40 223.20 1285.40 220.20L1285.40 220.20L1285.40 204.80L1279.80 204.80Q1270.20 204.80 1270.20 214.20Z" transform="translate(0 8)" fill="#6a3a14"/>
  <path d="M394 199L394 247.20Q394 250.20 375.20 250.20L375.20 250.20L364 249.60Q354 248.80 354 246.80L354 246.80L354 112.60Q354 109.20 374 109.20Q394 109.20 394 112.60L394 112.60L394 163.80L418.40 112.60Q419.80 109.80 434.40 109.80L434.40 109.80Q461 109.80 462.40 114.40L462.40 114.40Q462.40 114.80 462.20 115.20L462.20 115.20L427.40 178L467.80 233.80Q467.80 234.20 464 237.20L464 237.20Q454.80 245.20 442.40 249.80L442.40 249.80Q438.60 251.20 434.80 251.20L434.80 251.20L430 250.80Q423.60 249.20 420 242.60L420 242.60L397.20 199L394 199Z M646.80 184.60L646.80 248.80Q646.80 250.20 632.40 250.20L632.40 250.20Q612.40 249.60 612.40 248L612.40 248L612.40 183.20L607.20 183.20Q602 183.20 600.40 174.40L600.40 174.40Q600 171.80 600 169.20L600 169.20Q600 163 602.40 156.80L602.40 156.80Q606 148 613.60 148Q621.20 148 627.20 151.60Q633.20 155.20 635.20 158.80L635.20 158.80Q647.80 148 665.20 148Q682.60 148 690.40 157.40Q698.20 166.80 698.20 188.20L698.20 188.20L698.20 248.20Q698.20 250.60 681.10 250.60Q664 250.60 664 248.20L664 248.20L664 190.40Q664 180.40 657 180.40L657 180.40Q655 180.40 651.40 182.10Q647.80 183.80 646.80 184.60L646.80 184.60ZM719.40 214L719.40 214Q735.60 223.80 745 223.80L745 223.80Q751 223.80 751 219.60L751 219.60Q751 216.60 740.60 211.80L740.60 211.80Q715.60 201.60 715.60 178.40L715.60 178.40Q715.60 163.60 726.40 155.80Q737.20 148 752.30 148Q767.40 148 777.90 151.20Q788.40 154.40 788.40 159.60L788.40 159.60Q788.40 164 784.10 171.20Q779.80 178.40 778.20 179L778.20 179Q769.60 174.20 759.60 174.20L759.60 174.20Q754.20 174.20 754.20 178L754.20 178Q754.20 180.40 756.30 182.10Q758.40 183.80 764 186.30Q769.60 188.80 773.30 190.80Q777 192.80 781.60 196.40L781.60 196.40Q791.20 204 791.20 216.20L791.20 216.20Q791.20 232.20 780.60 242.10Q770 252 748.60 252L748.60 252Q734.40 252 722.80 247.20Q711.20 242.40 711.20 234L711.20 234Q711.20 228.40 713.90 222.20Q716.60 216 719.40 214ZM851.20 178L851.20 248.80Q851.20 251.20 834.40 251.20L834.40 251.20Q814.40 250.40 814.40 248.60L814.40 248.60L814.40 177.80L804.20 177.80Q800.20 177.80 800.20 164L800.20 164Q800.20 160.40 800.90 155.20Q801.60 150 803.80 150L803.80 150L814.40 150L814.40 132.40Q814.40 128.40 831.30 128.40Q848.20 128.40 848.20 131.60L848.20 131.60L848.20 144.40L848.40 150L865.40 150Q868.80 150 868.80 164Q868.80 178 865.40 178L865.40 178L851.20 178ZM922.60 194L922.60 249.80Q922.60 251.20 904.40 251.20L904.40 251.20Q886.20 250.80 886.20 249.60L886.20 249.60L886.20 183.20L880.80 183.20Q877.60 183.20 875.70 179.30Q873.80 175.40 873.80 169.60L873.80 169.60Q873.80 148 886.60 148L886.60 148Q895.60 148 901.60 153.50Q907.60 159 907.60 166L907.60 166Q911.80 157.80 918.90 152.90Q926.00 148 933.40 148L933.40 148Q945.00 148 947.40 154L947.40 154Q948.00 155.60 948.00 158.70Q948.00 161.80 946.10 169.80Q944.20 177.80 942.20 181.40Q940.20 185 939.80 185Q939.40 185 936.10 183.50Q932.80 182 930.20 182L930.20 182Q922.60 182 922.60 194L922.60 194ZM957.00 210.20L957.00 151.20Q957.00 149 974.20 149Q991.40 149 991.40 151.20L991.40 151.20L991.40 209.60Q991.40 219.60 997.80 219.60L997.80 219.60Q1002.60 219.60 1008.60 215.40L1008.60 215.40L1008.60 151.20Q1008.60 149.20 1025.60 149.20Q1042.60 149.20 1042.60 151.20L1042.60 151.20L1042.60 216.80L1047.80 216.80Q1054.60 216.80 1054.60 229.80L1054.60 229.80Q1054.60 236.40 1051.80 243.20L1051.80 243.20Q1047.80 252 1041 252L1041 252Q1027.60 252 1021.20 241L1021.20 241L1021.00 241.20Q1008.80 252 994.80 252L994.80 252Q975.40 252 966.20 242.30Q957.00 232.60 957.00 210.20L957.00 210.20ZM1066.80 248.80L1066.80 111.60Q1066.80 108.40 1085.00 108.40L1085.00 108.40Q1102.00 109 1102.00 111L1102.00 111L1102.00 187.80L1121.80 151.20Q1123.20 148.20 1138.80 148.20Q1154.40 148.20 1158.80 150.20L1158.80 150.20L1132.80 192.60L1162.80 248.80Q1163.20 249.60 1155.30 250.10Q1147.40 250.60 1142.20 250.60L1142.20 250.60Q1123.00 250.60 1121.60 248.80L1121.60 248.80L1101.80 204.40L1101.80 248.60Q1101.80 251.20 1084.30 251.20Q1066.80 251.20 1066.80 248.80L1066.80 248.80ZM1214.00 178L1214.00 248.80Q1214.00 251.20 1197.20 251.20L1197.20 251.20Q1177.20 250.40 1177.20 248.60L1177.20 248.60L1177.20 177.80L1167.00 177.80Q1163.00 177.80 1163.00 164L1163.00 164Q1163.00 160.40 1163.70 155.20Q1164.40 150 1166.60 150L1166.60 150L1177.20 150L1177.20 132.40Q1177.20 128.40 1194.10 128.40Q1211.00 128.40 1211.00 131.60L1211.00 131.60L1211.00 144.40L1211.20 150L1228.20 150Q1231.60 150 1231.60 164Q1231.60 178 1228.20 178L1228.20 178L1214.00 178ZM1254.20 177.40L1254.20 177.40Q1248.60 167.40 1248.60 161.10Q1248.60 154.80 1252.00 153L1252.00 153Q1263.40 148 1283.30 148Q1303.20 148 1311.40 157.30Q1319.60 166.60 1319.60 184.80L1319.60 184.80L1319.60 216.40L1326.40 216.40Q1329.80 216.40 1331.70 220.40Q1333.60 224.40 1333.60 231.40Q1333.60 238.40 1330.10 245.20Q1326.60 252 1320.60 252L1320.60 252Q1309.80 252 1303.20 246.20L1303.20 246.20Q1300.20 243.80 1298.60 240.40L1298.60 240.40Q1289.40 252 1270.00 252L1270.00 252Q1255.40 252 1245.40 241.60Q1235.40 231.20 1235.40 217L1235.40 217Q1235.40 184.40 1274.40 184.40L1274.40 184.40L1285.40 184.40L1285.40 182.40Q1285.40 177.20 1283.70 175.70Q1282.00 174.20 1275.80 174.20L1275.80 174.20Q1268.20 174.20 1254.20 177.40ZM1270.20 214.20L1270.20 214.20Q1270.20 218.60 1272.60 220.90Q1275.00 223.20 1278.70 223.20Q1282.40 223.20 1285.40 220.20L1285.40 220.20L1285.40 204.80L1279.80 204.80Q1270.20 204.80 1270.20 214.20Z" fill="#FFB85C"/>
  <svg x="472" y="128" width="120" height="140" viewBox="0 0 40 46"><path d="M20 3 33 15V31L20 43 7 31V15Z" fill="#6a3a14"/></svg>
  <svg x="472" y="118" width="120" height="140" viewBox="0 0 40 46">
  <circle cx="20" cy="24" r="17" fill="#FFB85C" opacity=".35"/>
  <path d="M20 3 33 15V31L20 43 7 31V15Z" fill="#FFB85C" stroke="#6a3a14" stroke-width="3" stroke-linejoin="round"/>
  <path d="M20 3 33 15V31L20 43Z" fill="#E8913F"/>
  <path d="M20 3 7 15 20 20 33 15Z" fill="#FFE0A8"/>
  <path d="M20 15l1.6 5.4L27 22l-5.4 1.6L20 29l-1.6-5.4L13 22l5.4-1.6z" fill="#FFF3D6"/>
</svg></svg>